<svg id="Layer_1" enable-background="new 0 0 512 512" height="512" viewBox="0 0 512 512" width="512" xmlns="http://www.w3.org/2000/svg"><g><path d="m510.356 153.083c-13.091-16.358-26.284-31.663-39.136-45.778 21.657-19.711 35.122-31.675 35.267-31.803 2.989-2.655 3.37-7.189.866-10.306-31.244-38.885-53.809-53.976-54.754-54.599-2.834-1.869-6.571-1.601-9.109.653-.145.129-13.807 12.268-35.734 32.229-28.896-26.625-48.609-41.664-48.996-41.957-1.908-1.445-4.391-1.894-6.685-1.205-1.364.409-32.051 9.775-60.818 31.114-5.775-4.822-8.964-7.359-9.128-7.489-1.753-1.394-4.035-1.929-6.227-1.464-1.744.371-43.101 9.39-77.799 35.824-1.84 1.402-2.931 3.575-2.955 5.889s1.022 4.509 2.833 5.949c.081.064 8.217 6.541 22.119 18.44 1.414 1.21 3.148 1.802 4.874 1.802 2.115 0 4.218-.89 5.701-2.623 2.693-3.147 2.326-7.881-.821-10.575-6.139-5.254-11.133-9.438-14.847-12.511 24.606-16.376 51.346-24.28 60.625-26.693 2.276 1.858 6.183 5.073 10.889 9.052.604.458 61.265 46.679 130.723 122.722 2.796 3.06 7.539 3.273 10.597.479 3.058-2.793 3.272-7.538.479-10.596-55.812-61.103-106.201-103.341-124.971-118.436 20.223-14.258 41.225-22.425 49.442-25.314 14.741 11.65 79.785 64.774 143.302 143.395-2.904 8.271-11.059 29.227-25.359 49.467-6.725-8.251-13.658-16.515-20.689-24.657-2.708-3.135-7.442-3.482-10.579-.774-3.135 2.707-3.481 7.443-.774 10.578 9.047 10.476 17.93 21.156 26.402 31.742 2.955 3.47 5.932 7.24 8.879 10.765-2.439 9.359-10.364 36.088-26.744 60.66-71.81-85.409-142.372-153.172-189.482-195.419-3.083-2.766-7.826-2.506-10.591.576-2.766 3.084-2.508 7.826.576 10.591 12.769 11.451 27.275 24.792 43.067 39.862-24.761 23.739-48.228 46.688-69.833 68.294-21.601 21.601-44.535 45.052-68.25 69.787-51.818-54.295-82.041-92.097-82.576-92.77-1.44-1.811-3.626-2.847-5.949-2.833-2.313.024-4.487 1.114-5.889 2.955-26.434 34.698-35.453 76.055-35.824 77.799-.466 2.19.071 4.474 1.464 6.227.13.163 2.668 3.353 7.489 9.128-21.339 28.767-30.705 59.455-31.114 60.818-.688 2.293-.24 4.777 1.205 6.685.293.387 15.332 20.099 41.956 48.994-19.96 21.927-32.099 35.589-32.228 35.735-2.254 2.539-2.522 6.275-.653 9.109.624.945 15.714 23.51 54.599 54.753 1.382 1.11 3.042 1.653 4.694 1.653 2.074 0 4.133-.856 5.611-2.52.128-.145 12.092-13.609 31.803-35.266 14.115 12.851 29.42 26.044 45.778 39.135 1.347 1.078 3.004 1.645 4.687 1.645.721 0 1.448-.104 2.156-.316 1.365-.41 32.125-9.797 60.922-31.191 2.958 2.499 5.924 4.985 8.863 7.428 1.359 1.13 3.06 1.733 4.795 1.733.52 0 1.043-.054 1.561-.164 1.744-.371 43.101-9.39 77.799-35.824 1.817-1.384 2.904-3.522 2.953-5.806s-.946-4.466-2.703-5.926c-35.777-29.749-68.613-59.496-97.815-87.473 10.091-10.527 20.11-20.894 29.855-30.89 2.891-2.966 2.831-7.714-.135-10.606-2.966-2.891-7.714-2.832-10.606.135-9.762 10.014-19.799 20.399-29.907 30.943-15.246-14.828-29.411-29.076-42.386-42.469 23.792-24.822 46.796-48.348 68.451-70.002 21.66-21.66 45.201-44.679 70.049-68.495 13.435 13.017 27.672 27.178 42.461 42.395-24.847 23.819-48.398 46.848-70.08 68.53-4.34 4.339-8.669 8.69-12.982 13.042-2.916 2.942-2.894 7.691.048 10.606 1.462 1.449 3.371 2.173 5.279 2.173 1.931 0 3.861-.741 5.327-2.221 4.297-4.336 8.611-8.67 12.935-12.994 21.617-21.617 45.103-44.583 69.887-68.34 27.972 29.221 57.654 62.027 87.439 97.848 1.427 1.715 3.54 2.705 5.767 2.705.053 0 .106 0 .16-.002 2.284-.048 4.422-1.136 5.806-2.953 26.434-34.699 35.453-76.056 35.824-77.799.478-2.248-.101-4.59-1.569-6.356-2.455-2.952-4.941-5.918-7.428-8.862 21.393-28.797 30.781-59.556 31.191-60.921.706-2.364.21-4.922-1.33-6.846zm-91.61-99.326c14.027-12.763 24.553-22.219 30.157-27.233 7.299 5.755 22.762 19.111 42.253 42.556-5.89 5.274-16.364 14.691-30.117 27.208-14.992-15.98-29.337-30.234-42.293-42.531zm-349.666 437.399c-23.449-19.495-36.806-34.96-42.556-42.253 5.013-5.603 14.469-16.13 27.232-30.157 12.296 12.956 26.55 27.301 42.531 42.293-12.516 13.753-21.932 24.227-27.207 30.117zm227.983-43.929c-24.577 16.383-51.309 24.308-60.661 26.745-3.505-2.93-7.275-5.906-10.765-8.878-59.325-47.479-106.5-95.738-135.628-127.863-2.782-3.068-7.525-3.3-10.594-.518-3.068 2.782-3.3 7.525-.518 10.594 28.255 31.161 73.283 77.319 129.851 123.427-20.196 14.26-41.19 22.441-49.47 25.356-78.551-63.46-131.73-128.551-143.39-143.299 2.891-8.222 11.054-29.213 25.305-49.43 3.305 4.118 7.924 9.766 13.804 16.707 2.677 3.16 7.41 3.553 10.57.874 3.161-2.677 3.552-7.41.874-10.57-12.516-14.772-19.661-24.163-19.661-24.163-3.979-4.706-6.942-8.299-8.801-10.576 2.416-9.287 10.323-36.031 26.701-60.636 23.382 28.183 110.225 129.503 232.383 232.23z"/></g></svg>