<svg id="Capa_1" enable-background="new 0 0 512 512" height="512" viewBox="0 0 512 512" width="512" xmlns="http://www.w3.org/2000/svg"><g><path d="m280.066 234.007v-11.143c0-3.207-.635-6.266-1.779-9.067h44.547c12.958 0 23.5-10.542 23.5-23.5v-13.488l105.76-83.097c3.546-2.787 5.734-6.967 6.004-11.469s-1.405-8.914-4.596-12.104l-31.081-31.079c-.007-.007-.015-.015-.022-.022l-36.842-36.838c-.171-.172-.351-.335-.538-.489-.375-.309-.773-.577-1.189-.803-.052-.029-.109-.051-.162-.079-.157-.08-.314-.16-.475-.229-.097-.042-.199-.074-.299-.112-.122-.046-.243-.094-.366-.134-.109-.035-.221-.061-.332-.09-.12-.032-.238-.066-.359-.092-.109-.023-.22-.04-.33-.058-.129-.022-.258-.044-.388-.059-.104-.012-.209-.019-.315-.026-.141-.01-.282-.019-.424-.021-.043-.002-.085-.008-.129-.008h-248.503c-.059 0-.117.008-.176.009-.143.003-.286.01-.428.022-.107.008-.212.019-.318.032-.126.016-.252.036-.377.058-.113.02-.226.04-.337.064-.115.026-.229.057-.343.088-.115.031-.23.062-.343.098-.111.036-.22.079-.33.121-.109.041-.219.08-.326.126-.117.051-.231.11-.346.167-.094.047-.191.09-.283.14-.132.073-.26.155-.388.236-.07.044-.143.084-.212.131-.149.101-.292.212-.434.325-.044.035-.091.065-.134.101-.154.127-.302.265-.447.406-.027.026-.057.049-.083.076l-67.945 67.94c-3.19 3.189-4.864 7.601-4.595 12.103s2.458 8.682 6.004 11.469l105.76 83.097v13.488c0 12.958 10.542 23.5 23.5 23.5h44.546c-1.143 2.8-1.779 5.86-1.779 9.067v11.144c-65.787 11.443-115.968 68.948-115.968 137.958-.001 77.215 62.819 140.034 140.034 140.034 33.555 0 66.013-12.051 91.395-33.934 3.137-2.704 3.487-7.44.783-10.577s-7.439-3.487-10.578-.784c-22.66 19.536-51.639 30.295-81.6 30.295-68.944 0-125.035-56.09-125.035-125.035 0-68.944 56.09-125.035 125.035-125.035s125.034 56.09 125.034 125.035c0 26.824-8.366 52.392-24.194 73.94-2.452 3.338-1.733 8.032 1.605 10.484 3.338 2.453 8.033 1.735 10.485-1.605 17.731-24.14 27.104-52.779 27.104-82.82 0-69.009-50.181-126.514-115.968-137.957zm163.058-152.659c-.014.233-.114.424-.298.569l-103.95 81.675-29.453-23.562 107.086-85.669 26.387 26.385c.165.166.243.368.228.602zm-170.995 28.848 107.734-92.478 25.974 25.972-108.419 86.736zm-25.814-20.65h26.84l-12.947 11.114zm82.915-48.134h-143.084l-33.016-26.412h206.87zm-17.475 15-21.142 18.148c-.098-.004-.193-.015-.292-.015h-62.757l-22.668-18.134h106.859zm-242.88 24.936c-.014-.234.063-.436.229-.602l26.388-26.386 31.571 25.257c1.383 1.106 3.037 1.644 4.68 1.644 2.2 0 4.38-.964 5.861-2.815 2.587-3.234 2.064-7.954-1.171-10.542l-30.27-24.216 26.142-26.14 123.473 98.776c.004.003.008.007.012.01l36.994 29.594c.004.003.008.007.012.01l24.655 19.723h-58.821l-97.426-77.94c-3.234-2.588-7.955-2.063-10.542 1.171-2.588 3.234-2.063 7.954 1.171 10.542l82.785 66.228h-58.858l-106.586-83.745c-.184-.145-.284-.336-.299-.569zm111.791 108.949v-9.634h75.307c.008 0 .016.002.024.002.012 0 .024-.002.036-.002h75.302v9.634c0 4.687-3.814 8.5-8.5 8.5h-133.669c-4.687 0-8.5-3.813-8.5-8.5zm66.267 41.935v-9.368c0-4.999 4.067-9.067 9.067-9.067 4.999 0 9.066 4.067 9.066 9.067v9.368c-2.999-.193-6.02-.301-9.066-.301-3.047 0-6.068.109-9.067.301z"/><path d="m256 265.065c-58.945 0-106.901 47.956-106.901 106.901s47.956 106.9 106.901 106.9 106.901-47.956 106.901-106.901-47.956-106.9-106.901-106.9zm0 198.801c-50.674 0-91.901-41.227-91.901-91.901s41.227-91.901 91.901-91.901c50.675 0 91.901 41.227 91.901 91.901s-41.226 91.901-91.901 91.901z"/><path d="m329.4 348.694c-.882-2.715-3.229-4.694-6.055-5.104l-41.888-6.086-18.732-37.957c-1.264-2.56-3.871-4.181-6.726-4.181s-5.462 1.621-6.726 4.181l-18.732 37.957-41.888 6.086c-2.825.41-5.172 2.389-6.054 5.104s-.146 5.696 1.898 7.688l30.31 29.545-7.155 41.718c-.482 2.814.674 5.658 2.984 7.335 1.307.95 2.854 1.433 4.409 1.433 1.193 0 2.392-.285 3.489-.861l37.466-19.697 37.465 19.697c2.528 1.329 5.589 1.106 7.899-.571 2.31-1.678 3.467-4.522 2.983-7.336l-7.154-41.718 30.311-29.545c2.043-1.992 2.778-4.973 1.896-7.688zm-45.502 29.245c-1.768 1.723-2.574 4.206-2.156 6.638l5.252 30.627-27.504-14.46c-2.185-1.148-4.794-1.149-6.98 0l-27.504 14.46 5.253-30.626c.417-2.433-.389-4.915-2.157-6.639l-22.251-21.69 30.751-4.468c2.443-.355 4.555-1.889 5.647-4.103l13.751-27.865 13.752 27.865c1.093 2.213 3.204 3.747 5.647 4.103l30.751 4.468z"/></g></svg>