<svg id="Layer_1" height="512" viewBox="0 0 512 512" width="512" xmlns="http://www.w3.org/2000/svg" data-name="Layer 1"><path d="m234.315 239.1 33.7-.01a6 6 0 0 0 6-6.025l-.142-33.773a22.838 22.838 0 0 0 -22.833-22.851h-.015a22.9 22.9 0 0 0 -22.253 17.633 22.854 22.854 0 0 0 5.541 45.026zm-7.669-30.522a10.789 10.789 0 0 1 7.5-3.178 6 6 0 0 0 3.978-1.59l.114-.1a6 6 0 0 0 1.931-4.409 10.87 10.87 0 0 1 10.86-10.855h.007a10.84 10.84 0 0 1 10.836 10.872l.117 27.779-27.68.008a10.848 10.848 0 0 1 -7.666-18.522z"/><path d="m236.3 399.409a27.9 27.9 0 0 0 39.411 0l123.7-123.7a27.9 27.9 0 0 0 0-39.411l-123.7-123.7a27.9 27.9 0 0 0 -39.412 0l-85.853 85.842a6 6 0 0 0 .618 9.025 6 6 0 0 0 7.867-.54l85.849-85.848a15.886 15.886 0 0 1 22.44 0l123.7 123.7a15.886 15.886 0 0 1 0 22.441l-123.7 123.7a15.89 15.89 0 0 1 -22.441 0l-42.915-42.915 13.518-13.518 47.96 23.6a6 6 0 0 0 7.806-8.451l-42.707-71.8 60.043 24.712a6 6 0 0 0 7.994-7.388l-10.175-31.6 35.021-35.021a6 6 0 0 0 -8.485-8.485l-37.613 37.614a6 6 0 0 0 -1.469 6.081l7.336 22.78-64.722-26.627a6 6 0 0 0 -7.44 8.617l41.569 69.883-33.67-16.571a6 6 0 0 0 -6.892 1.141l-16.557 16.555-72.3-72.3a15.886 15.886 0 0 1 0-22.441l9.3-9.3a6 6 0 0 0 -.618-9.025 6 6 0 0 0 -7.867.539l-9.3 9.3a27.9 27.9 0 0 0 0 39.411z"/><path d="m9.78 131.358 60.571 85.326-4.151 4.148a49.793 49.793 0 0 0 0 70.336l154.632 154.632a49.791 49.791 0 0 0 70.336 0l4.148-4.148 85.326 60.572c.047.034.1.067.145.1a27.939 27.939 0 0 0 35.164-3.482l82.886-82.887a27.941 27.941 0 0 0 3.482-35.163c-.032-.049-.065-.1-.1-.144l-60.572-85.327 4.149-4.148a49.793 49.793 0 0 0 0-70.336l-154.628-154.637a49.793 49.793 0 0 0 -70.336 0l-4.148 4.148-85.326-60.568c-.047-.034-.1-.067-.145-.1a27.944 27.944 0 0 0 -35.164 3.482l-82.886 82.887a27.943 27.943 0 0 0 -3.482 35.164c.032.049.065.098.099.145zm219.537-56.67a37.78 37.78 0 0 1 53.366 0l154.629 154.629a37.781 37.781 0 0 1 0 53.367l-22.4 22.4a6 6 0 1 0 8.485 8.485l9.646-9.646 59.338 83.588a15.913 15.913 0 0 1 -2.028 19.955l-82.887 82.887a15.913 15.913 0 0 1 -19.955 2.027l-83.587-59.338 90.922-90.922a6 6 0 1 0 -8.485-8.485l-103.678 103.677a37.737 37.737 0 0 1 -53.366 0l-154.629-154.628a37.781 37.781 0 0 1 0-53.367zm-207.669 29.847 82.887-82.887a15.909 15.909 0 0 1 19.954-2.028l83.588 59.338-129.119 129.119-59.338-83.588a15.912 15.912 0 0 1 2.028-19.954z"/><path d="m58 153.919a6 6 0 0 0 9.8-6.925l-19.611-27.756a6 6 0 1 0 -9.8 6.926z"/><path d="m69.837 169.055 4.5 6.343a6 6 0 1 0 9.785-6.946l-4.5-6.344a6 6 0 1 0 -9.785 6.947z"/><path d="m332.906 94.474a6 6 0 0 0 0 8.485l19.394 19.394a6 6 0 0 0 8.485-8.486l-19.394-19.393a6 6 0 0 0 -8.485 0z"/><path d="m368.845 130.413a6 6 0 0 0 0 8.485l10.706 10.702a6 6 0 1 0 8.486-8.485l-10.707-10.702a6 6 0 0 0 -8.485 0z"/></svg>